<?xml version="1.0" standalone="no"?>
<!DOCTYPE svg PUBLIC "-//W3C//DTD SVG 20010904//EN"
 "http://www.w3.org/TR/2001/REC-SVG-20010904/DTD/svg10.dtd">
<svg version="1.0" xmlns="http://www.w3.org/2000/svg"
 width="450.000000pt" height="563.000000pt" viewBox="0 0 450.000000 563.000000"
 preserveAspectRatio="xMidYMid meet">
<metadata>
Created by potrace 1.10, written by Peter Selinger 2001-2011
</metadata>
<g transform="translate(0.000000,563.000000) scale(0.100000,-0.100000)"
fill="#000000" stroke="none">
<path d="M2176 4405 c-21 -8 -48 -10 -60 -6 -11 4 -59 4 -106 1 l-85 -7 101
-1 101 -2 6 -167 c4 -91 7 -206 7 -255 l0 -88 -440 0 -440 0 -2 78 c-1 42 -3
88 -4 102 -1 14 -3 43 -4 65 -1 32 -3 36 -10 20 -5 -11 -9 -75 -9 -142 l-1
-123 -92 0 c-113 -1 -208 -9 -228 -21 -9 -5 55 -9 151 -9 l166 0 5 -252 c3
-139 5 -254 4 -254 0 -1 -142 -4 -314 -6 -217 -4 -316 -8 -324 -16 -14 -14
-50 -13 334 -12 l307 1 3 -256 3 -255 -220 -1 c-121 -1 -229 -3 -240 -4 -11
-1 -72 -2 -136 -3 -85 -2 -116 -5 -116 -15 0 -10 76 -11 359 -8 l358 3 0 -220
0 -220 -67 -27 c-38 -15 -72 -31 -78 -35 -5 -5 -111 -9 -235 -11 -202 -2 -250
-7 -250 -28 0 -3 144 -5 319 -3 l320 3 1 -255 1 -256 -163 -2 c-90 0 -167 -2
-173 -2 -16 -2 -51 -25 -40 -26 6 0 16 5 23 12 9 9 12 9 12 0 0 -7 3 -11 8
-11 4 1 81 1 172 0 l165 -1 4 -142 c3 -145 5 -158 22 -158 6 0 7 54 3 148 l-6
149 293 6 c162 4 362 7 445 7 l150 0 3 -250 3 -250 -114 -2 c-172 -4 -280 1
-297 14 -13 10 -14 10 -3 -2 17 -19 15 -35 -2 -21 -9 8 -16 8 -20 2 -4 -6 -13
-8 -21 -4 -8 3 -15 1 -15 -4 0 -15 238 -18 723 -9 163 2 302 8 308 12 6 3 15
0 20 -7 7 -11 9 -11 9 -1 0 7 5 10 10 7 6 -3 10 -2 10 3 0 6 10 8 23 6 20 -4
20 -4 2 5 -11 4 -23 7 -27 4 -5 -2 -8 1 -8 6 0 10 29 16 53 12 5 -1 5 4 1 10
-4 7 0 9 14 5 11 -4 23 -2 27 4 4 6 14 9 22 6 8 -3 11 -1 8 4 -3 6 -3 10 2 11
29 3 48 9 51 18 2 6 10 11 18 11 8 0 14 4 14 9 0 6 9 8 19 6 11 -2 29 7 42 21
31 33 12 30 -74 -10 -82 -39 -201 -86 -215 -86 -6 0 -12 -5 -14 -11 -3 -8 -84
-13 -271 -17 l-267 -5 0 139 c0 76 -3 190 -7 252 l-6 112 39 0 c21 0 220 3
442 7 l402 6 0 -201 c0 -141 3 -202 11 -202 6 0 9 -7 5 -15 -3 -8 -1 -15 4
-15 6 0 10 82 10 214 l0 213 77 7 c42 3 174 6 294 6 120 0 220 3 222 8 3 4
-16 6 -41 5 -34 -2 -42 0 -27 6 31 14 -49 17 -303 11 -122 -3 -222 -3 -222 0
0 3 -3 116 -7 253 l-6 247 224 1 c123 1 231 2 239 3 8 2 101 4 205 6 109 1
173 6 150 10 -39 6 -40 6 -10 12 17 3 -158 3 -387 1 l-418 -5 -1 179 c0 98 -2
193 -4 211 -2 24 1 32 10 28 7 -2 17 0 23 6 6 6 22 8 36 4 26 -7 42 -5 39 4
-1 3 17 6 38 7 47 3 77 17 60 27 -6 4 -11 3 -11 -1 0 -5 -19 -9 -42 -10 l-43
-1 39 18 c53 24 23 32 -36 9 -27 -10 -48 -15 -48 -10 0 4 -11 6 -24 4 -13 -3
-23 -11 -22 -20 0 -9 -5 -18 -11 -20 -9 -3 -13 8 -13 36 l0 41 394 0 c217 0
401 3 410 6 53 21 -17 24 -394 22 l-410 -3 -1 220 c-1 121 -3 237 -4 258 l-4
38 332 -3 332 -3 37 -112 c21 -62 40 -130 44 -152 6 -38 5 -39 -27 -47 -19 -4
-42 -7 -52 -5 -9 1 -20 -4 -23 -12 -3 -9 -31 -25 -62 -38 -31 -12 -61 -26 -66
-31 -17 -14 -25 -9 -29 20 l-4 27 -2 -27 c0 -18 -7 -28 -16 -28 -11 0 -14 9
-12 34 1 26 6 33 20 31 21 -5 23 11 1 19 -40 15 -45 9 -38 -52 l6 -59 -60 -22
c-34 -13 -72 -24 -86 -25 -13 0 -22 -5 -19 -10 6 -10 77 -2 134 15 21 7 37 15
35 18 -3 3 11 7 30 7 27 0 33 -3 29 -14 -5 -13 -3 -13 11 -1 9 8 38 19 63 25
l46 12 -37 1 c-21 0 -38 6 -38 12 0 7 9 9 21 6 15 -4 17 -2 10 6 -7 9 -2 12
16 13 17 2 23 -2 19 -12 -10 -25 3 -15 19 15 12 23 21 29 45 29 24 -1 28 -4
19 -14 -8 -10 -2 -9 21 2 17 9 33 14 35 13 4 -6 14 -79 15 -113 0 -22 3 -26
13 -17 10 8 16 76 7 76 -1 0 -3 15 -6 34 -2 19 -12 40 -22 48 -9 8 -12 12 -6
9 10 -5 12 85 1 114 -3 8 -11 39 -17 67 -7 29 -15 51 -20 48 -4 -2 -5 7 -2 20
2 14 0 25 -6 25 -17 0 -25 39 -12 55 7 8 17 12 23 8 6 -3 7 -1 3 6 -5 8 -101
11 -367 9 l-359 -3 0 221 c0 122 -3 236 -6 253 l-7 32 184 -1 c101 0 200 4
219 8 19 5 39 9 43 10 5 0 11 3 14 6 4 3 -98 6 -225 6 l-232 0 -1 153 c-1 83
-2 162 -2 175 -1 22 -21 26 -23 4 -1 -7 -3 -15 -4 -19 -1 -5 -2 -12 -1 -17 1
-5 -5 -4 -13 4 -9 7 -16 18 -16 25 0 7 -8 12 -17 12 -30 0 -63 15 -57 25 3 5
-2 8 -12 6 -12 -2 -19 3 -18 12 1 9 -9 16 -25 16 -31 2 -57 10 -116 34 -26 11
-100 34 -100 31 0 -1 -13 3 -29 9 -16 6 -45 13 -65 16 -20 3 -52 9 -71 14
l-35 8 43 1 c23 1 42 4 42 9 0 4 -65 7 -143 7 -130 0 -143 -2 -139 -17 3 -13
-5 -18 -35 -24 -21 -3 -45 -11 -53 -16 -9 -5 2 -6 30 -1 25 4 115 8 200 7 145
0 162 -3 260 -33 58 -17 165 -61 238 -97 l132 -65 0 -139 0 -140 -432 -2
c-238 -2 -434 -3 -436 -2 -1 1 -5 114 -9 252 l-6 251 49 3 c43 3 46 4 29 15
-15 8 -29 8 -59 -2z m119 -15 c3 -5 1 -10 -4 -10 -6 0 -11 5 -11 10 0 6 2 10
4 10 3 0 8 -4 11 -10z m55 0 c-8 -5 -22 -10 -30 -10 -13 0 -13 1 0 10 8 5 22
10 30 10 13 0 13 -1 0 -10z m-207 -782 c4 -138 5 -253 4 -255 -2 -2 -201 -6
-443 -10 l-439 -6 -4 256 -3 257 429 3 c235 1 433 3 439 5 7 1 13 -76 17 -250z
m900 146 c4 -59 7 -174 7 -256 l0 -148 -434 0 -433 0 -6 68 c-4 37 -7 151 -7
254 l0 186 433 2 434 1 6 -107z m7 -639 c-7 -8 -21 -15 -31 -15 -11 0 -19 -4
-19 -8 0 -5 -19 -17 -42 -27 -94 -41 -534 -227 -548 -232 -13 -3 -15 4 -12 36
5 52 -2 72 -23 64 -13 -5 -14 -7 -3 -14 7 -5 13 -27 14 -51 0 -41 2 -43 31
-46 18 -2 52 6 77 17 52 24 69 27 42 6 -38 -29 -10 -23 86 17 58 24 95 45 91
51 -3 6 -1 7 6 3 7 -5 64 15 131 43 65 28 127 51 137 51 11 0 28 7 39 15 19
14 18 14 -3 15 -16 0 -21 4 -17 15 4 8 12 15 20 15 8 0 14 5 14 10 0 6 5 10
10 10 6 0 10 -53 10 -140 l0 -140 -440 0 -440 0 0 255 0 255 433 2 432 3 9
-98 c6 -73 5 -101 -4 -112z m-897 -47 c3 -139 3 -255 0 -258 -2 -3 -202 -7
-444 -9 l-439 -3 0 256 0 256 283 2 c155 2 352 4 438 6 l156 4 6 -254z m1654
-84 c-3 -3 -12 -4 -19 -1 -8 3 -5 6 6 6 11 1 17 -2 13 -5z m-997 -18 c0 -3 -4
-8 -10 -11 -5 -3 -10 -1 -10 4 0 6 5 11 10 11 6 0 10 -2 10 -4z m-160 -76 c0
-5 -10 -10 -22 -10 -19 0 -20 2 -8 10 19 13 30 13 30 0z m-60 -25 c-7 -8 -17
-15 -22 -15 -6 0 -5 7 2 15 7 8 17 15 22 15 6 0 5 -7 -2 -15z m470 -124 c0
-46 -2 -50 -31 -60 -18 -6 -34 -11 -35 -11 -2 0 -7 18 -10 40 -6 37 -9 40 -38
40 l-32 0 3 -57 4 -58 -77 -32 c-85 -35 -105 -32 -99 15 2 15 4 31 4 35 1 5 6
5 11 2 6 -3 10 -23 10 -43 0 -25 3 -33 10 -26 6 6 8 28 4 51 -5 35 -10 41 -31
41 -23 0 -24 -3 -22 -61 l3 -60 -64 -28 c-34 -16 -64 -29 -65 -29 -1 0 -1 19
-1 43 1 40 0 42 -31 45 l-33 3 5 -58 5 -59 -47 -17 c-27 -9 -53 -17 -59 -17
-7 0 -14 40 -18 107 -4 60 -11 112 -17 118 -13 13 -8 -96 5 -114 8 -11 8 -13
-1 -8 -6 4 -15 3 -18 -3 -4 -6 -1 -9 7 -8 14 3 14 -3 3 -37 -6 -16 -5 -17 4
-5 8 12 11 7 11 -23 0 -26 -5 -40 -17 -44 -9 -4 -19 -1 -21 5 -7 21 -22 13
-22 -11 0 -18 -13 -28 -67 -52 -38 -16 -71 -29 -75 -27 -11 3 -10 -16 1 -37 9
-15 18 -17 68 -10 32 4 69 5 83 2 20 -4 23 -3 13 7 -6 7 -9 20 -6 29 5 14 4
14 -8 -1 -8 -9 -30 -19 -49 -22 l-35 -7 38 21 c20 11 37 22 37 24 0 10 -28 -1
-58 -22 -18 -13 -42 -22 -55 -19 -22 3 -22 3 3 14 14 6 27 10 30 9 3 0 21 9
41 22 20 12 48 22 63 22 16 0 25 4 21 10 -3 6 1 10 11 10 14 0 14 3 4 15 -11
13 -10 14 3 9 23 -9 29 -34 14 -58 -13 -19 -7 -66 7 -66 3 0 1 11 -4 24 -7 19
-5 26 6 30 8 3 13 10 10 15 -3 4 11 11 32 14 20 3 45 8 55 12 15 6 17 1 17
-46 0 -47 8 -63 14 -27 1 7 5 19 9 26 5 7 4 12 -2 12 -6 0 -11 9 -11 19 0 27
-8 30 -62 21 -27 -4 -48 -3 -48 2 0 15 5 23 15 24 6 1 19 6 29 10 15 6 18 4
13 -9 -4 -11 -2 -14 9 -10 11 4 12 9 4 18 -6 7 -7 15 -3 18 21 11 60 15 73 7
8 -5 10 -10 4 -10 -6 0 -11 -6 -12 -12 0 -7 -3 -22 -5 -33 -3 -12 1 -32 9 -45
13 -24 13 -22 14 27 0 61 17 83 63 83 44 0 67 16 33 22 -14 3 -29 1 -35 -5
-11 -11 -31 -1 -30 16 0 9 2 9 6 0 3 -9 11 -6 26 8 21 19 22 19 36 2 11 -14
13 -15 8 -2 -4 11 5 21 31 33 29 14 33 14 23 2 -10 -12 -9 -14 11 -9 15 3 19
2 11 -4 -8 -5 -10 -25 -8 -53 3 -28 0 -47 -8 -52 -8 -5 -7 -8 6 -8 14 0 17 -6
13 -27 -2 -16 -5 -31 -5 -35 -2 -14 -19 -8 -25 8 -3 8 -2 12 4 9 6 -3 10 -1
10 4 0 6 -5 11 -11 11 -7 0 -10 16 -8 43 2 25 0 44 -6 44 -11 0 -5 -151 8
-163 4 -4 7 -3 7 3 0 6 7 13 14 16 10 4 13 1 9 -9 -3 -7 0 -14 7 -14 9 0 11
25 6 103 -4 56 -3 108 2 115 5 7 24 17 43 21 19 4 44 11 57 15 21 7 22 5 22
-62 0 -67 1 -70 24 -68 20 1 22 4 15 19 -6 10 -6 17 -1 17 18 0 21 -40 4 -50
-11 -6 -12 -9 -4 -10 7 0 11 -4 8 -9 -4 -5 0 -11 6 -14 10 -3 10 -9 2 -24 -9
-15 -8 -23 3 -38 14 -18 15 -6 9 115 -4 74 -8 144 -9 155 -1 14 8 23 33 32 19
6 29 12 23 12 -17 1 -16 26 1 40 21 17 22 6 25 -200 l3 -186 -234 -6 c-128 -4
-326 -7 -440 -7 l-207 0 -3 255 -3 255 400 3 c220 1 417 3 438 5 l37 2 0 -49z
m-900 10 c0 -26 -6 -31 -67 -56 -38 -16 -106 -45 -153 -66 -147 -64 -299 -130
-310 -134 -3 -1 -18 -5 -35 -10 -16 -4 -33 -13 -37 -19 -4 -6 -11 -11 -15 -11
-30 -2 -83 -17 -83 -24 0 -5 -35 -23 -77 -41 -43 -19 -84 -38 -90 -43 -10 -7
-13 31 -13 184 0 107 -3 204 -6 216 l-6 23 283 3 c156 1 357 3 447 5 l162 2 0
-29z m800 -32 c0 -6 -6 -7 -12 -3 -8 4 -10 3 -5 -2 5 -5 14 -9 19 -9 6 0 13
-12 15 -27 3 -22 0 -27 -16 -25 -11 0 -17 5 -15 9 3 4 1 8 -5 8 -8 0 -9 16 -2
63 1 11 21 -2 21 -14z m-798 -282 l3 -168 -45 1 c-25 0 -224 -3 -442 -6 l-398
-6 0 36 c0 30 4 36 20 36 17 0 19 -3 11 -19 -10 -19 -10 -19 37 -1 59 23 112
50 112 57 0 3 -7 3 -15 -1 -8 -3 -15 -1 -15 4 0 13 42 40 52 34 4 -3 8 0 8 6
0 6 5 8 10 5 6 -3 10 -1 10 5 0 6 5 8 10 5 6 -3 10 0 11 7 0 10 2 10 6 0 3 -8
11 -5 25 10 11 13 17 17 13 11 -3 -7 -2 -13 4 -13 5 0 12 6 14 13 4 9 8 8 16
-3 9 -13 11 -13 11 3 0 19 45 41 67 33 7 -3 13 -1 13 5 0 6 7 8 16 5 8 -3 13
-2 10 3 -3 5 6 9 19 9 23 0 24 -2 8 -14 -28 -21 -10 -16 59 15 125 56 203 90
226 96 33 10 110 56 87 52 -11 -1 -26 -6 -32 -10 -8 -5 -13 -3 -13 5 0 8 10
14 23 15 12 1 29 12 37 25 14 21 15 20 17 -32 2 -30 4 -131 5 -223z m-97 203
c3 -5 1 -10 -5 -10 -6 0 -36 -11 -66 -25 -30 -14 -58 -24 -62 -24 -17 3 -51
-14 -46 -22 3 -5 3 -9 0 -9 -3 0 -8 5 -11 10 -6 10 41 35 61 32 5 -1 19 6 30
15 20 18 37 25 62 26 6 0 12 4 12 9 0 11 18 10 25 -2z m948 -7 c-7 -2 -21 -2
-30 0 -10 3 -4 5 12 5 17 0 24 -2 18 -5z m-38 -91 c0 -39 -3 -68 -7 -66 -4 3
-9 0 -9 -5 -3 -26 -4 -30 -9 -35 -3 -3 -6 4 -7 14 -1 11 2 22 8 25 5 4 9 11 9
16 0 6 -4 8 -8 5 -4 -2 -8 3 -9 12 -4 63 -9 80 -19 71 -6 -5 -21 -11 -35 -13
-13 -3 -25 -5 -26 -5 -2 -1 -4 -1 -5 0 -2 0 -15 -4 -30 -10 -19 -7 -29 -7 -34
1 -4 6 -3 8 3 5 6 -4 16 0 23 8 7 8 16 13 20 10 5 -3 11 -1 15 5 3 5 15 10 26
10 10 0 19 3 19 8 0 13 44 29 59 21 11 -5 15 -27 16 -77z m-385 -13 c0 -27 -4
-39 -12 -37 -18 6 -29 59 -17 75 18 20 29 5 29 -38z m-735 21 c-3 -5 -12 -10
-18 -10 -7 0 -6 4 3 10 19 12 23 12 15 0z m-46 -22 c-7 -13 -14 -18 -16 -11
-3 7 -12 10 -21 7 -9 -2 -3 2 13 10 17 8 31 15 33 16 1 0 -3 -10 -9 -22z m821
-58 c0 -5 -8 -10 -17 -10 -15 0 -16 2 -3 10 19 12 20 12 20 0z m-236 -75 c-4
-8 -11 -15 -16 -15 -6 0 -5 6 2 15 7 8 14 15 16 15 2 0 1 -7 -2 -15z m-1014
-39 c0 -12 -33 -35 -42 -30 -6 4 -1 12 13 20 27 15 29 16 29 10z m-128 -66 l5
-30 -66 0 -66 1 55 19 c30 10 56 23 58 29 6 18 9 13 14 -19z m1821 -287 c3
-137 3 -251 -1 -254 -4 -4 -202 -9 -439 -11 l-433 -5 0 201 c0 111 -3 225 -6
253 l-7 53 264 2 c145 2 343 4 440 6 l176 3 6 -248z m-903 -18 l0 -255 -137 0
c-93 0 -133 3 -123 10 8 5 27 10 42 10 15 0 29 4 32 9 4 5 24 12 45 16 22 4
45 13 52 21 6 8 18 14 25 14 15 0 54 30 54 42 0 14 -27 9 -40 -7 -7 -8 -19
-15 -27 -15 -8 0 -22 -8 -31 -17 -16 -16 -17 -16 -20 0 -2 9 -7 17 -12 17 -5
0 -7 -6 -4 -13 3 -8 -1 -19 -9 -26 -23 -18 -31 28 -9 53 12 15 13 17 2 9 -13
-10 -16 -8 -16 8 0 13 5 18 15 14 12 -5 12 -2 -1 12 -12 13 -17 39 -18 98 -1
133 -3 155 -11 155 -5 0 -5 8 -2 18 7 16 6 16 -11 0 -9 -10 -24 -18 -32 -18
-21 0 -17 9 9 20 l22 9 -22 0 c-28 1 -31 21 -4 21 21 0 37 17 27 27 -3 3 -31
-4 -62 -16 -69 -26 -67 -26 -59 2 l6 22 -14 -23 c-7 -12 -16 -20 -20 -16 -3 4
-4 -3 -2 -16 3 -18 2 -20 -10 -10 -10 8 -15 9 -15 2 0 -6 -16 -16 -35 -23 -19
-7 -35 -17 -35 -21 0 -4 -18 -11 -40 -14 -44 -7 -72 -37 -44 -48 11 -4 13 -13
9 -28 -7 -23 -7 -23 8 -3 9 11 11 22 6 26 -8 5 18 38 31 38 15 0 59 21 65 31
6 9 10 9 15 -1 7 -10 11 -10 24 0 9 8 16 10 16 6 0 -5 9 2 20 15 11 13 20 18
20 12 0 -17 -4 -27 -10 -25 -5 1 -9 -17 -11 -58 0 -9 -7 -16 -16 -15 -22 2
-29 -30 -22 -114 3 -41 6 -67 7 -57 1 9 7 17 13 17 8 0 8 4 0 14 -9 11 -10 20
-1 35 7 14 7 21 0 21 -5 0 -9 18 -8 40 1 39 10 50 23 30 4 -6 1 -18 -7 -27 -7
-9 -8 -14 -2 -10 8 5 12 -14 12 -63 1 -39 3 -74 7 -79 3 -5 1 -12 -4 -16 -7
-4 -7 -15 -1 -31 14 -36 12 -41 -5 -18 -14 18 -14 17 -4 -8 25 -57 30 -26 23
126 -9 195 -3 213 71 218 27 2 52 3 53 2 2 -2 6 -83 9 -182 l6 -179 -41 -7
c-23 -3 -45 -12 -49 -20 -6 -10 -71 -14 -305 -19 l-298 -6 0 187 c0 103 -3
217 -7 254 l-6 68 339 3 c186 1 387 3 447 5 l107 2 0 -255z m-253 171 c-2 -6
-16 -12 -30 -14 -21 -3 -26 0 -21 13 5 13 9 13 22 3 13 -11 15 -10 9 4 -4 12
-2 15 9 11 8 -3 13 -11 11 -17z"/>
<path d="M1775 3819 c-4 -6 -5 -12 -2 -15 2 -3 7 2 10 11 7 17 1 20 -8 4z"/>
<path d="M1532 3785 c0 -16 2 -22 5 -12 2 9 2 23 0 30 -3 6 -5 -1 -5 -18z"/>
<path d="M1478 3773 c9 -4 2 -15 -22 -38 -20 -18 -36 -39 -36 -46 0 -9 5 -6
12 6 6 10 24 30 40 43 27 23 30 43 5 41 -8 0 -7 -2 1 -6z"/>
<path d="M1296 3685 c-3 -9 -6 -24 -5 -33 0 -9 5 -4 10 12 9 32 6 48 -5 21z"/>
<path d="M1777 3653 c-9 -8 12 -33 27 -33 6 0 3 5 -7 11 -9 6 -15 14 -12 20 7
10 2 12 -8 2z"/>
<path d="M1282 3620 c0 -8 4 -26 8 -40 l8 -25 1 27 c1 14 4 28 9 31 4 2 2 2
-5 1 -6 -2 -14 2 -17 9 -2 7 -4 6 -4 -3z"/>
<path d="M1395 3580 c-16 -7 -17 -9 -3 -9 9 -1 20 4 23 9 7 11 7 11 -20 0z"/>
<path d="M1485 3570 c-3 -6 1 -7 9 -4 18 7 21 14 7 14 -6 0 -13 -4 -16 -10z"/>
<path d="M1390 3531 c0 -25 6 -27 13 -6 4 8 2 17 -3 20 -6 4 -10 -3 -10 -14z"/>
<path d="M1468 3503 c6 -2 9 -10 6 -15 -4 -7 -2 -8 5 -4 13 9 5 26 -12 25 -9
0 -8 -2 1 -6z"/>
<path d="M1570 3479 c0 -5 5 -7 10 -4 6 3 10 8 10 11 0 2 -4 4 -10 4 -5 0 -10
-5 -10 -11z"/>
<path d="M1702 3445 c0 -16 2 -22 5 -12 2 9 2 23 0 30 -3 6 -5 -1 -5 -18z"/>
<path d="M1290 3415 c-11 -13 -10 -14 4 -9 9 3 16 10 16 15 0 13 -6 11 -20 -6z"/>
<path d="M1420 3420 c0 -5 5 -10 11 -10 5 0 7 5 4 10 -3 6 -8 10 -11 10 -2 0
-4 -4 -4 -10z"/>
<path d="M1530 3419 c0 -5 5 -7 10 -4 6 3 10 8 10 11 0 2 -4 4 -10 4 -5 0 -10
-5 -10 -11z"/>
<path d="M1759 3403 c-13 -16 -12 -17 4 -4 9 7 17 15 17 17 0 8 -8 3 -21 -13z"/>
<path d="M1900 3410 c0 -6 7 -10 15 -10 8 0 15 2 15 4 0 2 -7 6 -15 10 -8 3
-15 1 -15 -4z"/>
<path d="M1967 3413 c-4 -3 -7 -11 -7 -17 0 -6 5 -5 12 2 6 6 9 14 7 17 -3 3
-9 2 -12 -2z"/>
<path d="M1356 3395 c-9 -26 -7 -32 5 -12 6 10 9 21 6 23 -2 3 -7 -2 -11 -11z"/>
<path d="M1691 3394 c0 -11 3 -14 6 -6 3 7 2 16 -1 19 -3 4 -6 -2 -5 -13z"/>
<path d="M2017 3403 c-3 -5 5 -8 18 -8 13 0 21 3 18 8 -2 4 -10 7 -18 7 -8 0
-16 -3 -18 -7z"/>
<path d="M2696 3804 c-6 -14 9 -54 20 -54 2 0 0 9 -6 19 -5 11 -7 27 -4 35 3
9 4 16 1 16 -3 0 -8 -7 -11 -16z"/>
<path d="M2313 3705 c0 -22 2 -30 4 -17 2 12 2 30 0 40 -3 9 -5 -1 -4 -23z"/>
<path d="M2273 3643 c-23 -32 -56 -93 -49 -93 2 0 13 15 24 33 11 19 27 46 37
60 23 35 14 35 -12 0z"/>
<path d="M2311 3644 c0 -11 3 -14 6 -6 3 7 2 16 -1 19 -3 4 -6 -2 -5 -13z"/>
<path d="M2682 3644 c9 -9 21 -15 27 -13 6 2 -2 10 -17 17 -25 11 -25 11 -10
-4z"/>
<path d="M2790 3496 c0 -2 8 -10 18 -17 15 -13 16 -12 3 4 -13 16 -21 21 -21
13z"/>
<path d="M2630 3405 c-7 -8 -9 -15 -6 -15 4 0 14 7 22 15 9 8 11 15 6 15 -5 0
-15 -7 -22 -15z"/>
<path d="M2675 3410 c-3 -6 1 -7 9 -4 18 7 21 14 7 14 -6 0 -13 -4 -16 -10z"/>
<path d="M2786 3412 c-3 -5 1 -9 9 -9 8 0 12 4 9 9 -3 4 -7 8 -9 8 -2 0 -6 -4
-9 -8z"/>
<path d="M2945 3410 c3 -5 8 -10 11 -10 2 0 4 5 4 10 0 6 -5 10 -11 10 -5 0
-7 -4 -4 -10z"/>
<path d="M2315 3400 c-3 -5 -1 -10 4 -10 6 0 11 5 11 10 0 6 -2 10 -4 10 -3 0
-8 -4 -11 -10z"/>
<path d="M2360 3400 c0 -5 4 -10 9 -10 6 0 13 5 16 10 3 6 -1 10 -9 10 -9 0
-16 -4 -16 -10z"/>
<path d="M2410 3402 c0 -4 9 -8 19 -8 11 0 17 4 15 8 -3 4 -12 8 -20 8 -8 0
-14 -4 -14 -8z"/>
<path d="M2536 3393 c-6 -14 -5 -15 5 -6 7 7 10 15 7 18 -3 3 -9 -2 -12 -12z"/>
<path d="M2230 3206 c0 -2 7 -7 16 -10 8 -3 12 -2 9 4 -6 10 -25 14 -25 6z"/>
<path d="M2535 3105 c4 -17 11 -34 16 -39 5 -5 4 5 -1 24 -12 42 -24 55 -15
15z"/>
<path d="M2321 2993 c1 -27 5 -77 9 -113 l7 -65 2 75 c1 53 4 71 11 60 6 -9
10 -10 10 -3 0 6 -5 15 -10 18 -16 10 -9 64 7 58 8 -3 11 -8 9 -11 -3 -3 -1
-11 4 -18 6 -6 9 -17 8 -24 -2 -7 2 -14 7 -16 6 -3 9 14 7 41 -4 44 -5 45 -38
45 l-34 0 1 -47z"/>
<path d="M1345 3250 c-3 -5 -1 -10 4 -10 6 0 11 5 11 10 0 6 -2 10 -4 10 -3 0
-8 -4 -11 -10z"/>
<path d="M1566 3212 c-3 -5 1 -9 9 -9 8 0 12 4 9 9 -3 4 -7 8 -9 8 -2 0 -6 -4
-9 -8z"/>
<path d="M1746 3174 c-4 -14 -5 -28 -3 -31 3 -2 8 8 11 23 4 14 5 28 3 31 -3
2 -8 -8 -11 -23z"/>
<path d="M1674 3168 c-4 -6 1 -17 11 -25 30 -21 40 -15 14 8 -18 16 -20 19 -6
15 11 -3 16 -2 12 4 -8 13 -22 13 -31 -2z"/>
<path d="M1796 3117 c3 -10 9 -15 12 -12 3 3 0 11 -7 18 -10 9 -11 8 -5 -6z"/>
<path d="M1431 3064 c0 -11 3 -14 6 -6 3 7 2 16 -1 19 -3 4 -6 -2 -5 -13z"/>
<path d="M1465 3029 c-11 -16 -1 -19 13 -3 7 8 8 14 3 14 -5 0 -13 -5 -16 -11z"/>
<path d="M1386 2982 c-3 -5 1 -9 9 -9 8 0 12 4 9 9 -3 4 -7 8 -9 8 -2 0 -6 -4
-9 -8z"/>
<path d="M1675 2969 c-11 -16 -1 -19 13 -3 7 8 8 14 3 14 -5 0 -13 -5 -16 -11z"/>
<path d="M1595 2928 c-18 -82 -22 -108 -15 -108 4 0 10 17 13 38 3 20 8 49 12
65 6 32 -2 37 -10 5z"/>
<path d="M1339 2913 c-13 -16 -12 -17 4 -4 9 7 17 15 17 17 0 8 -8 3 -21 -13z"/>
<path d="M1706 2921 c-4 -5 3 -7 14 -4 23 6 26 13 6 13 -8 0 -17 -4 -20 -9z"/>
<path d="M1420 2900 c6 -11 13 -20 16 -20 2 0 0 9 -6 20 -6 11 -13 20 -16 20
-2 0 0 -9 6 -20z"/>
<path d="M1612 2880 c0 -14 2 -19 5 -12 2 6 2 18 0 25 -3 6 -5 1 -5 -13z"/>
<path d="M1601 2834 c0 -11 3 -14 6 -6 3 7 2 16 -1 19 -3 4 -6 -2 -5 -13z"/>
<path d="M2233 2752 c-26 -12 -32 -21 -30 -44 1 -15 3 -28 5 -28 1 0 18 7 38
15 19 8 48 12 63 9 33 -7 40 -32 42 -149 0 -38 4 -79 8 -89 7 -19 8 -19 13 1
3 11 2 26 -2 33 -4 7 -4 27 0 46 5 19 4 34 -1 34 -13 0 -11 64 1 76 8 8 6 15
-5 24 -8 7 -15 22 -16 34 0 11 -3 15 -6 9 -5 -14 -43 -18 -43 -5 0 4 -17 6
-37 5 l-38 -4 34 19 c42 24 20 36 -26 14z"/>
<path d="M2418 2743 c19 -8 15 -33 -5 -26 -12 3 -9 -1 6 -12 17 -13 25 -15 31
-5 4 6 10 11 14 11 3 -1 6 2 7 5 0 7 -49 34 -60 33 -3 0 0 -3 7 -6z"/>
<path d="M2375 2700 c3 -5 8 -10 11 -10 2 0 4 5 4 10 0 6 -5 10 -11 10 -5 0
-7 -4 -4 -10z"/>
<path d="M2940 2354 c1 -56 2 -58 15 -34 7 14 10 27 7 30 -4 3 -9 16 -10 30
-7 46 -12 34 -12 -26z"/>
<path d="M2595 2310 c-3 -5 -1 -10 4 -10 6 0 11 5 11 10 0 6 -2 10 -4 10 -3 0
-8 -4 -11 -10z"/>
<path d="M1716 2675 c-9 -26 -7 -32 5 -12 6 10 9 21 6 23 -2 3 -7 -2 -11 -11z"/>
<path d="M1948 2683 c7 -3 16 -2 19 1 4 3 -2 6 -13 5 -11 0 -14 -3 -6 -6z"/>
<path d="M1400 2616 c0 -8 4 -17 9 -20 5 -4 7 3 4 14 -6 23 -13 26 -13 6z"/>
<path d="M1650 2619 c0 -5 5 -7 10 -4 6 3 10 8 10 11 0 2 -4 4 -10 4 -5 0 -10
-5 -10 -11z"/>
<path d="M1686 2603 c-6 -14 -5 -15 5 -6 7 7 10 15 7 18 -3 3 -9 -2 -12 -12z"/>
<path d="M1390 2570 c-9 -6 -10 -10 -3 -10 6 0 15 5 18 10 8 12 4 12 -15 0z"/>
<path d="M1540 2570 c0 -5 5 -10 11 -10 5 0 7 5 4 10 -3 6 -8 10 -11 10 -2 0
-4 -4 -4 -10z"/>
<path d="M1410 2555 c-7 -9 -8 -15 -2 -15 5 0 12 7 16 15 3 8 4 15 2 15 -2 0
-9 -7 -16 -15z"/>
<path d="M1410 2520 c0 -5 -10 -10 -22 -11 -22 0 -22 -1 -3 -9 29 -12 31 -12
32 10 1 11 0 20 -3 20 -2 0 -4 -4 -4 -10z"/>
<path d="M1670 2470 c0 -5 5 -10 11 -10 5 0 7 5 4 10 -3 6 -8 10 -11 10 -2 0
-4 -4 -4 -10z"/>
<path d="M1811 2444 c0 -11 3 -14 6 -6 3 7 2 16 -1 19 -3 4 -6 -2 -5 -13z"/>
<path d="M1963 2308 c2 -9 7 -21 12 -25 4 -5 5 -2 1 5 -7 12 4 16 32 13 6 -1
12 2 12 7 0 6 -13 12 -30 14 -24 4 -29 1 -27 -14z"/>
<path d="M2110 2290 c-12 -8 -11 -10 7 -10 12 0 25 5 28 10 8 13 -15 13 -35 0z"/>
<path d="M3024 2232 c-12 -2 -28 -18 -38 -38 -9 -20 -12 -33 -7 -30 5 3 14 0
20 -8 9 -11 8 -18 -6 -32 -14 -14 -15 -17 -3 -12 11 4 16 -1 17 -16 0 -11 -1
-15 -4 -7 -5 11 -7 11 -15 0 -7 -11 -11 -11 -15 -1 -2 6 -19 11 -36 11 -31 -2
-31 -2 -4 -6 25 -4 27 -8 27 -48 0 -62 7 -75 43 -75 l30 0 -6 69 c-5 59 -3 73
14 92 18 21 18 23 1 35 -14 11 -14 13 -2 14 12 1 12 3 -2 14 -18 14 -25 32 -9
21 5 -3 13 0 16 6 9 13 5 16 -21 11z m-10 -47 c1 -9 8 -20 15 -25 15 -9 6 -30
-11 -30 -6 0 -8 3 -5 7 4 3 0 14 -8 23 -9 10 -13 25 -9 34 7 19 14 16 18 -9z
m4 -141 c2 -32 -17 -72 -28 -55 -4 7 -5 24 -2 39 5 24 6 25 14 7 8 -20 8 -20
5 0 -1 11 -7 20 -14 20 -6 0 -15 3 -19 8 -4 4 4 7 17 7 19 0 25 -6 27 -26z"/>
<path d="M2376 2091 l7 -141 -32 0 c-17 0 -39 -8 -50 -19 -33 -33 -62 -45 -72
-30 -6 10 -8 4 -7 -16 1 -16 12 -44 25 -61 28 -37 29 -45 6 -38 -15 5 -16 4
-3 -5 24 -17 46 -13 47 9 1 11 -4 20 -12 20 -17 0 -38 36 -31 53 2 7 5 4 5 -5
1 -15 9 -16 66 -11 l65 6 0 -47 c0 -37 3 -44 13 -35 16 15 12 76 -7 121 -10
21 -39 17 -42 -7 -2 -13 0 -15 9 -6 16 16 27 14 27 -5 0 -12 -8 -14 -37 -11
-21 2 -46 0 -55 -5 -10 -5 -19 -4 -23 2 -3 5 2 10 12 10 13 0 15 2 5 9 -17 10
44 41 80 41 34 0 37 6 28 46 -6 24 -4 34 4 34 8 0 11 -10 8 -29 -2 -16 1 -32
9 -36 8 -5 10 -4 5 3 -4 7 -1 12 8 12 8 0 17 6 19 13 3 6 6 1 6 -12 1 -20 5
-22 24 -16 12 4 36 7 52 7 17 0 24 2 17 5 -6 2 -9 10 -5 16 4 6 0 8 -9 4 -9
-3 -21 0 -28 6 -10 9 -11 9 -6 0 4 -7 -2 -17 -14 -23 -13 -7 -20 -7 -20 0 0 5
5 10 11 10 5 0 8 4 5 9 -5 8 71 45 87 42 4 0 7 4 7 10 0 5 4 8 9 4 5 -3 12 -1
15 4 4 5 2 12 -4 16 -6 4 -8 10 -5 15 3 5 1 11 -5 15 -12 7 -11 125 1 125 5 0
10 -6 10 -12 4 -46 9 -71 13 -75 3 -3 1 -13 -3 -22 -5 -9 -5 -26 0 -39 7 -20
12 -21 30 -12 22 12 35 8 25 -8 -3 -5 -17 -8 -31 -6 -20 2 -24 -1 -16 -10 6
-7 7 -16 3 -21 -4 -4 13 3 38 16 25 12 59 22 75 21 17 0 24 2 17 4 -6 3 -10
10 -7 14 3 5 -10 7 -30 6 -29 -3 -34 -1 -25 9 6 8 18 11 26 8 7 -3 16 2 19 10
4 9 16 13 36 11 19 -2 28 0 23 7 -3 6 -8 32 -11 57 -3 26 -9 54 -14 62 -7 10
-8 -4 -4 -42 6 -54 5 -58 -14 -58 -22 0 -59 -17 -76 -36 -5 -6 -17 -14 -26
-17 -19 -6 -28 30 -30 118 -1 28 -3 42 -6 33 -4 -14 -8 -16 -24 -8 -18 10 -19
6 -19 -80 0 -70 -3 -90 -14 -90 -7 0 -19 -7 -26 -15 -7 -8 -19 -15 -27 -15 -8
0 -22 -7 -31 -16 -15 -15 -16 -15 -23 2 -7 17 -8 17 -8 -3 -1 -33 -16 -35 -17
-2 -1 19 3 29 12 29 8 0 14 5 14 10 0 6 -6 10 -14 10 -8 0 -18 -4 -21 -10 -3
-5 -10 -10 -14 -10 -11 0 -8 101 3 119 6 10 5 12 -2 7 -7 -4 -12 -1 -12 6 0 7
-3 24 -6 38 -6 25 -6 25 10 5 17 -20 17 -20 6 2 -26 55 -31 34 -24 -106z"/>
<path d="M2808 2223 c-2 -5 -1 -24 3 -43 l6 -35 2 43 c1 39 -3 52 -11 35z"/>
<path d="M2950 2215 c0 -10 -10 -15 -31 -15 -37 0 -56 -10 -98 -49 l-33 -31
31 0 c28 0 41 -12 24 -23 -5 -2 -1 -2 7 1 8 3 23 4 33 4 10 0 15 4 11 10 -5 8
6 9 37 5 37 -5 41 -4 27 7 -10 7 -15 16 -11 20 4 4 0 4 -10 0 -11 -4 -17 -1
-17 9 0 9 10 19 23 23 35 11 48 38 22 48 -9 3 -15 0 -15 -9z m-50 -35 c-20
-13 -33 -13 -25 0 3 6 14 10 23 10 15 0 15 -2 2 -10z m6 -29 c0 -14 -9 -21
-28 -23 -20 -3 -28 0 -28 10 0 9 7 13 19 9 12 -3 22 1 25 9 7 19 12 17 12 -5z"/>
<path d="M2215 2210 c-3 -5 -1 -10 4 -10 6 0 11 5 11 10 0 6 -2 10 -4 10 -3 0
-8 -4 -11 -10z"/>
<path d="M2429 2204 c-5 -73 1 -137 14 -150 4 -4 4 31 0 77 -6 82 -12 112 -14
73z"/>
<path d="M2217 2058 c3 -68 8 -126 11 -130 4 -4 5 49 2 117 -3 68 -8 127 -12
130 -3 3 -3 -50 -1 -117z"/>
<path d="M2850 2071 c0 -5 -11 -8 -25 -6 -19 2 -23 -1 -15 -10 6 -7 12 -35 13
-64 2 -28 7 -54 11 -58 4 -4 5 21 2 55 -6 61 -5 63 15 57 14 -5 25 -2 30 6 14
22 11 29 -11 29 -11 0 -20 -4 -20 -9z"/>
<path d="M2778 1982 c2 -37 5 -73 7 -79 6 -19 55 -16 55 2 0 8 -4 15 -10 15
-5 0 -10 -5 -10 -10 0 -7 -5 -6 -13 2 -18 16 -18 38 0 31 9 -4 11 0 7 11 -3 9
-11 16 -16 16 -6 0 -5 6 2 15 8 10 9 15 2 15 -6 0 -9 6 -6 13 3 8 -1 19 -8 25
-12 9 -13 -1 -10 -56z"/>
<path d="M2656 1985 c3 -8 -1 -12 -13 -12 -14 2 -18 -6 -19 -33 0 -20 -6 -34
-12 -33 -6 2 -9 -4 -6 -12 4 -8 10 -12 15 -9 5 3 6 -2 3 -10 -4 -9 -1 -16 6
-16 9 0 11 14 8 50 l-5 51 27 -6 c20 -4 29 -2 34 11 8 20 5 23 -22 29 -14 2
-19 -1 -16 -10z"/>
<path d="M2573 1953 c4 -7 8 -41 9 -77 l2 -66 32 0 c28 0 31 3 27 21 -5 18 -7
19 -15 5 -15 -27 -31 -18 -26 14 3 17 1 30 -3 30 -8 0 -2 46 8 64 3 6 3 8 -2
4 -4 -4 -15 -2 -23 5 -12 9 -14 9 -9 0z"/>
<path d="M2471 1904 c9 -11 8 -14 0 -14 -7 0 -9 -4 -6 -10 10 -17 32 -11 38 9
3 14 -2 20 -19 24 -20 3 -22 2 -13 -9z"/>
<path d="M2446 1835 c13 -20 14 -25 3 -25 -11 0 -11 -3 1 -11 11 -8 12 -12 2
-16 -13 -5 -7 -23 9 -23 6 0 8 18 5 43 -6 50 -3 44 -21 51 -13 5 -13 2 1 -19z"/>
<path d="M2042 2211 c-8 -4 -14 -12 -15 -17 -1 -5 -5 -8 -9 -7 -4 2 -5 -4 -2
-12 8 -21 25 -19 31 4 3 12 19 23 41 29 l37 10 -35 1 c-19 0 -41 -3 -48 -8z"/>
<path d="M1781 2194 c0 -11 3 -14 6 -6 3 7 2 16 -1 19 -3 4 -6 -2 -5 -13z"/>
<path d="M2017 2135 c-4 -8 -4 -21 -1 -29 3 -8 0 -17 -5 -21 -6 -3 -8 -11 -5
-17 12 -19 13 -68 1 -61 -6 3 -7 1 -3 -6 4 -6 11 -9 16 -6 14 9 6 -30 -10 -43
-13 -12 -13 -13 3 -8 12 4 17 0 17 -14 0 -13 -5 -18 -15 -14 -8 4 -15 1 -15
-7 0 -7 3 -9 7 -5 4 3 13 -4 20 -16 10 -19 12 0 7 117 -3 77 -7 141 -8 143 -2
1 -6 -4 -9 -13z"/>
<path d="M1370 2045 c0 -61 -1 -65 -29 -80 -17 -8 -33 -19 -36 -25 -9 -14 30
-7 49 9 9 7 16 10 16 6 0 -4 7 -2 14 5 11 8 12 18 6 36 -13 32 -6 87 10 92 8
3 10 0 5 -8 -6 -9 -3 -9 15 0 26 14 24 17 -18 25 l-32 5 0 -65z"/>
<path d="M1591 2060 c6 -17 18 -30 27 -30 13 0 14 2 4 9 -8 4 -13 10 -12 12 3
9 -13 39 -21 39 -4 0 -3 -13 2 -30z"/>
<path d="M1516 2062 c-3 -5 1 -9 9 -9 8 0 12 4 9 9 -3 4 -7 8 -9 8 -2 0 -6 -4
-9 -8z"/>
<path d="M1536 2045 c-22 -13 -43 -22 -47 -19 -4 2 -10 0 -14 -6 -3 -5 -17
-10 -31 -10 -15 0 -24 -6 -24 -16 0 -8 -4 -12 -10 -9 -6 3 -7 -1 -4 -9 8 -20
13 -20 34 -1 16 14 47 25 77 27 7 1 10 5 7 10 -3 4 6 12 19 17 24 9 43 28 35
36 -2 2 -21 -7 -42 -20z"/>
<path d="M1717 2058 c-7 -5 4 -6 23 -3 19 3 36 8 39 11 8 7 -49 0 -62 -8z"/>
<path d="M1601 1974 c0 -11 3 -14 6 -6 3 7 2 16 -1 19 -3 4 -6 -2 -5 -13z"/>
<path d="M1480 1970 c-9 -6 -10 -10 -3 -10 6 0 15 5 18 10 8 12 4 12 -15 0z"/>
<path d="M1390 1946 c0 -2 11 -6 25 -8 13 -3 22 -1 19 3 -5 9 -44 13 -44 5z"/>
<path d="M1325 1910 c-8 -13 5 -13 25 0 13 8 13 10 -2 10 -9 0 -20 -4 -23 -10z"/>
<path d="M1320 1889 c-21 -7 -19 -8 15 -6 36 2 40 0 37 -20 -2 -13 2 -23 7
-23 17 0 13 47 -5 54 -18 7 -21 7 -54 -5z"/>
<path d="M1650 1896 c0 -2 7 -7 16 -10 8 -3 12 -2 9 4 -6 10 -25 14 -25 6z"/>
<path d="M1792 1820 c0 -19 2 -27 5 -17 2 9 2 25 0 35 -3 9 -5 1 -5 -18z"/>
<path d="M1370 1796 c0 -19 5 -38 11 -42 8 -5 10 3 7 25 -4 26 -1 34 16 41 19
8 18 9 -6 9 -25 1 -28 -2 -28 -33z"/>
<path d="M1646 1815 c4 -8 11 -15 16 -15 6 0 5 6 -2 15 -7 8 -14 15 -16 15 -2
0 -1 -7 2 -15z"/>
<path d="M1431 1794 c0 -11 3 -14 6 -6 3 7 2 16 -1 19 -3 4 -6 -2 -5 -13z"/>
<path d="M1330 1790 c-9 -6 -10 -10 -3 -10 6 0 15 5 18 10 8 12 4 12 -15 0z"/>
<path d="M2120 1791 c-8 -6 -18 -7 -24 -4 -5 3 -6 1 -2 -5 5 -8 -2 -12 -19
-12 -14 0 -24 -4 -20 -9 3 -6 17 -6 35 1 17 5 36 8 44 5 10 -4 12 0 9 14 -3
10 -6 19 -7 19 0 0 -8 -4 -16 -9z"/>
<path d="M2580 4410 c0 -5 5 -10 10 -10 6 0 10 5 10 10 0 6 -4 10 -10 10 -5 0
-10 -4 -10 -10z"/>
<path d="M1866 4402 c-3 -5 1 -9 9 -9 8 0 12 4 9 9 -3 4 -7 8 -9 8 -2 0 -6 -4
-9 -8z"/>
<path d="M1872 4335 c0 -16 2 -22 5 -12 2 9 2 23 0 30 -3 6 -5 -1 -5 -18z"/>
<path d="M2074 4341 c-2 -3 -11 -6 -19 -8 -29 -6 -53 -14 -103 -34 -31 -12
-45 -11 -36 3 4 7 3 8 -5 4 -6 -4 -9 -12 -6 -17 6 -8 -11 -13 -42 -12 -7 1
-11 -3 -8 -7 7 -11 -62 -29 -74 -19 -6 5 -9 6 -6 2 6 -8 -24 -43 -37 -43 -5 0
-6 5 -2 12 4 6 3 8 -4 4 -6 -3 -13 -2 -17 4 -3 5 -14 10 -23 10 -12 0 -10 -4
7 -13 23 -12 27 -35 5 -29 -6 1 -11 -5 -11 -13 0 -8 1 -15 1 -15 1 0 41 20 89
44 48 24 140 61 205 82 116 37 155 55 113 51 -12 -1 -24 -3 -27 -6z"/>
<path d="M2253 4294 c11 -13 26 -20 36 -17 9 2 23 -3 30 -11 16 -19 1 -21 -19
-3 -12 10 -12 9 -1 -5 15 -20 41 -24 41 -7 0 18 -28 39 -52 39 -13 0 -30 6
-38 13 -8 6 -6 2 3 -9z"/>
<path d="M1668 4277 c-3 -19 -2 -25 4 -19 6 6 8 18 6 28 -3 14 -5 12 -10 -9z"/>
<path d="M1640 4230 c-9 -6 -10 -10 -3 -10 6 0 15 5 18 10 8 12 4 12 -15 0z"/>
<path d="M1585 4179 c-4 -6 -5 -12 -2 -15 2 -3 7 2 10 11 7 17 1 20 -8 4z"/>
<path d="M1784 4169 c-13 -14 -27 -19 -46 -17 -15 3 -25 1 -22 -4 10 -17 51
-7 74 17 13 14 21 25 18 25 -3 0 -13 -9 -24 -21z"/>
<path d="M1605 4140 c3 -5 8 -10 11 -10 2 0 4 5 4 10 0 6 -5 10 -11 10 -5 0
-7 -4 -4 -10z"/>
<path d="M3080 4143 c1 -5 39 -34 85 -67 46 -32 111 -83 144 -112 55 -51 81
-65 81 -46 0 5 -16 21 -35 36 -19 16 -32 33 -28 39 3 6 1 7 -5 3 -13 -8 -174
118 -164 129 4 5 1 5 -5 1 -7 -4 -23 0 -35 8 -24 17 -38 20 -38 9z"/>
<path d="M1483 4115 c0 -8 4 -12 9 -9 5 3 6 10 3 15 -9 13 -12 11 -12 -6z"/>
<path d="M1445 4090 c-3 -5 -1 -10 4 -10 6 0 11 5 11 10 0 6 -2 10 -4 10 -3 0
-8 -4 -11 -10z"/>
<path d="M1511 4074 c0 -11 3 -14 6 -6 3 7 2 16 -1 19 -3 4 -6 -2 -5 -13z"/>
<path d="M1891 4054 c0 -11 3 -14 6 -6 3 7 2 16 -1 19 -3 4 -6 -2 -5 -13z"/>
<path d="M1450 4052 c0 -5 7 -9 15 -9 8 0 12 4 9 9 -3 4 -9 8 -15 8 -5 0 -9
-4 -9 -8z"/>
<path d="M1916 4045 c-3 -9 -6 -22 -5 -28 0 -7 5 -1 10 12 5 13 8 26 5 28 -2
2 -6 -3 -10 -12z"/>
<path d="M1585 4030 c3 -5 8 -10 11 -10 2 0 4 5 4 10 0 6 -5 10 -11 10 -5 0
-7 -4 -4 -10z"/>
<path d="M1436 4013 c-6 -14 -5 -15 5 -6 7 7 10 15 7 18 -3 3 -9 -2 -12 -12z"/>
<path d="M1797 4013 c-4 -3 -6 -18 -6 -32 1 -25 2 -25 8 4 l7 30 12 -40 c7
-22 12 -48 12 -58 0 -16 2 -16 25 -1 14 9 32 13 42 10 14 -6 15 -5 6 5 -9 9
-18 10 -37 1 -23 -10 -25 -9 -31 28 -7 39 -26 66 -38 53z"/>
<path d="M1902 3970 c0 -14 2 -19 5 -12 2 6 2 18 0 25 -3 6 -5 1 -5 -13z"/>
<path d="M1667 3960 c-3 -11 -1 -20 4 -20 5 0 9 9 9 20 0 11 -2 20 -4 20 -2 0
-6 -9 -9 -20z"/>
<path d="M1520 3946 c0 -2 7 -7 16 -10 8 -3 12 -2 9 4 -6 10 -25 14 -25 6z"/>
<path d="M1590 3920 c-8 -5 -10 -10 -5 -10 6 0 17 5 25 10 8 5 11 10 5 10 -5
0 -17 -5 -25 -10z"/>
<path d="M3430 3843 c0 -4 13 -21 29 -38 91 -96 275 -410 249 -427 -9 -5 -8
-8 6 -8 16 0 18 5 11 38 -4 20 -7 45 -8 55 -1 9 -5 17 -8 17 -4 0 -10 8 -13
18 -4 10 -16 29 -27 41 -12 12 -22 28 -23 34 -4 19 -40 77 -48 77 -5 0 -8 7
-8 14 0 8 -11 27 -25 42 -14 15 -25 33 -25 41 0 8 -4 12 -9 9 -9 -6 -26 22
-22 37 1 5 -3 6 -8 3 -5 -4 -19 7 -31 24 -20 28 -40 39 -40 23z"/>
<path d="M1183 3734 c-13 -11 -23 -25 -23 -30 0 -6 -19 -37 -57 -93 -2 -2 -13
4 -25 15 -13 10 -18 12 -11 4 17 -23 17 -52 -1 -92 -30 -69 -16 -64 20 7 20
39 56 101 81 138 48 72 52 87 16 51z"/>
<path d="M999 3563 c-13 -16 -12 -17 4 -4 9 7 17 15 17 17 0 8 -8 3 -21 -13z"/>
<path d="M1042 3535 c-7 -14 -12 -37 -12 -50 0 -13 -4 -25 -8 -27 -5 -1 -5
-14 -2 -28 6 -22 8 -21 14 15 4 22 11 56 16 74 11 43 7 50 -8 16z"/>
<path d="M923 3530 c-33 -13 -28 -20 6 -10 19 5 34 4 42 -3 10 -10 10 -8 0 6
-15 19 -17 19 -48 7z"/>
<path d="M865 3499 c-11 -16 -1 -19 13 -3 7 8 8 14 3 14 -5 0 -13 -5 -16 -11z"/>
<path d="M980 3446 c0 -2 7 -7 16 -10 8 -3 12 -2 9 4 -6 10 -25 14 -25 6z"/>
<path d="M3360 3420 c0 -5 5 -10 11 -10 5 0 7 5 4 10 -3 6 -8 10 -11 10 -2 0
-4 -4 -4 -10z"/>
<path d="M3420 3415 c0 -8 4 -15 10 -15 5 0 7 7 4 15 -4 8 -8 15 -10 15 -2 0
-4 -7 -4 -15z"/>
<path d="M1080 3410 c-12 -8 -10 -10 8 -10 13 0 20 4 17 10 -7 12 -6 12 -25 0z"/>
<path d="M3118 3413 c7 -3 16 -2 19 1 4 3 -2 6 -13 5 -11 0 -14 -3 -6 -6z"/>
<path d="M3139 3288 c-2 -13 -1 -43 2 -68 5 -41 6 -39 7 23 2 67 -2 87 -9 45z"/>
<path d="M3420 3261 c-63 -26 -148 -62 -187 -79 -40 -17 -73 -27 -73 -21 0 6
-13 1 -30 -11 -40 -28 -38 -41 5 -35 23 3 33 0 29 -6 -3 -6 2 -19 12 -30 16
-18 16 -19 -2 -19 -18 -1 -18 -1 -1 -11 20 -12 47 -5 47 11 0 6 -12 15 -27 21
-25 9 -26 10 -7 23 10 7 29 16 42 20 12 4 19 12 16 18 -5 7 -2 8 5 4 7 -5 48
8 94 27 45 20 132 57 192 83 61 25 111 47 112 48 1 0 -24 2 -55 3 -47 1 -76
-7 -172 -46z m-210 -125 c0 -2 -7 -7 -16 -10 -8 -3 -12 -2 -9 4 6 10 25 14 25
6z"/>
<path d="M954 3276 c-3 -9 -10 -13 -15 -10 -5 3 -6 -2 -3 -10 9 -22 21 -20 29
5 8 25 -2 39 -11 15z"/>
<path d="M3203 3230 c0 -25 2 -35 4 -22 2 12 2 32 0 45 -2 12 -4 2 -4 -23z"/>
<path d="M934 3219 c-4 -7 -9 -28 -10 -46 -1 -19 -8 -40 -14 -48 -7 -9 -14
-43 -16 -78 -5 -90 -7 -101 -24 -115 -8 -8 -9 -11 -2 -7 15 7 16 -11 2 -20 -8
-5 -7 -11 0 -20 7 -8 9 -19 6 -24 -4 -5 -2 -12 4 -16 6 -4 10 7 11 27 0 41 33
248 48 307 12 44 9 63 -5 40z"/>
<path d="M980 3163 c0 -4 5 -15 10 -23 8 -13 10 -13 10 2 0 9 -4 20 -10 23 -5
3 -10 3 -10 -2z"/>
<path d="M3671 3146 c-8 -10 -9 -16 -1 -21 5 -3 10 0 10 9 0 8 6 17 13 19 7 4
8 6 1 6 -6 1 -17 -5 -23 -13z"/>
<path d="M566 3095 c-9 -26 -7 -32 5 -12 6 10 9 21 6 23 -2 3 -7 -2 -11 -11z"/>
<path d="M3392 3090 c0 -14 2 -19 5 -12 2 6 2 18 0 25 -3 6 -5 1 -5 -13z"/>
<path d="M3710 3069 c0 -22 5 -39 11 -39 6 0 8 8 5 18 -5 14 -4 14 9 -2 13
-17 15 -17 15 -4 0 9 -4 20 -10 23 -16 10 -12 25 7 25 21 0 12 9 -16 15 -19 3
-21 -1 -21 -36z"/>
<path d="M3135 3051 c-3 -5 -1 -12 5 -16 5 -3 10 -20 10 -38 0 -29 -1 -30 -14
-11 -12 16 -17 17 -28 6 -11 -11 -10 -12 5 -7 11 5 17 2 17 -8 0 -8 7 -18 16
-21 11 -4 14 -16 11 -46 -2 -22 0 -40 5 -40 5 0 7 -4 4 -8 -2 -4 0 -14 5 -22
6 -10 8 1 4 35 -3 28 -7 75 -10 105 -2 30 -9 56 -15 58 -5 2 -8 8 -4 13 3 5 3
9 0 9 -3 0 -7 -4 -11 -9z"/>
<path d="M552 3007 c-1 -18 -5 -41 -8 -52 -4 -11 -3 -17 1 -13 11 10 24 88 16
93 -4 2 -8 -11 -9 -28z"/>
<path d="M705 2940 c-4 -6 1 -10 9 -10 21 0 20 -8 -4 -50 l-21 -35 26 30 c14
17 25 37 25 46 0 19 -26 33 -35 19z"/>
<path d="M3132 2915 c0 -16 2 -22 5 -12 2 9 2 23 0 30 -3 6 -5 -1 -5 -18z"/>
<path d="M3301 2906 c1 -37 16 -88 19 -66 1 8 1 23 0 34 -1 11 3 15 9 12 15
-10 14 7 -1 22 -8 8 -9 12 -1 12 6 0 16 -12 21 -27 l10 -28 -1 32 c0 27 -4 32
-28 35 -27 4 -29 2 -28 -26z"/>
<path d="M3730 2911 c0 -7 -5 -9 -12 -5 -7 5 -8 3 -3 -5 5 -9 10 -10 18 -2 6
6 8 14 4 18 -4 3 -7 1 -7 -6z"/>
<path d="M3113 2875 c0 -22 2 -30 4 -17 2 12 2 30 0 40 -3 9 -5 -1 -4 -23z"/>
<path d="M3733 2875 c-3 -9 -3 -18 -1 -21 3 -3 8 4 11 16 6 23 -1 27 -10 5z"/>
<path d="M541 2854 c0 -11 3 -14 6 -6 3 7 2 16 -1 19 -3 4 -6 -2 -5 -13z"/>
<path d="M443 2783 c9 -2 23 -2 30 0 6 3 -1 5 -18 5 -16 0 -22 -2 -12 -5z"/>
<path d="M3365 2771 c-3 -5 -1 -12 5 -16 5 -3 10 1 10 9 0 18 -6 21 -15 7z"/>
<path d="M3534 2734 c3 -27 7 -98 8 -157 3 -116 1 -120 -52 -134 -14 -3 -36
-14 -49 -25 -36 -27 -48 -23 -43 17 2 19 0 35 -6 35 -5 0 -7 -11 -5 -25 3 -14
-1 -31 -10 -40 -14 -14 -16 -13 -21 2 -3 10 -4 35 -1 56 3 21 0 48 -6 60 -9
16 -9 22 0 25 9 3 9 7 0 18 -9 11 -9 14 0 14 8 0 9 6 3 18 -5 9 -7 23 -4 31 2
8 1 11 -4 8 -12 -7 -11 86 1 96 6 5 4 7 -5 4 -12 -3 -15 -21 -15 -83 1 -80 14
-254 20 -265 2 -3 -13 -11 -33 -18 -20 -8 -45 -22 -55 -33 -10 -10 -32 -21
-48 -25 -16 -3 -26 -9 -24 -13 4 -7 25 -5 60 5 6 1 15 3 20 5 6 1 16 7 24 13
7 6 19 12 27 13 7 1 21 9 30 18 20 21 31 20 43 -1 10 -17 10 -16 11 2 1 18 4
17 27 -10 27 -31 66 -46 57 -21 -3 8 -11 13 -18 10 -7 -3 -19 2 -26 11 -10 12
-10 15 1 15 8 0 31 9 52 20 20 11 41 20 47 20 5 0 10 -21 11 -47 1 -43 2 -45
9 -20 5 17 5 39 -1 54 -8 22 -13 24 -56 18 l-48 -5 48 16 c26 9 47 21 47 26 0
5 5 6 12 2 8 -5 9 -2 5 10 -6 14 -3 15 13 6 14 -7 20 -7 20 0 0 5 7 10 16 10
8 0 12 -4 9 -10 -3 -5 -4 -10 0 -10 3 0 10 11 15 25 5 14 17 25 27 25 10 0 33
9 51 20 19 12 31 16 27 10 -3 -5 -1 -10 4 -10 10 0 15 13 13 31 -1 4 8 5 18 2
11 -3 20 0 20 6 0 5 7 8 16 4 8 -3 13 -12 10 -20 -5 -11 -2 -11 16 -2 19 10
20 9 15 -12 -4 -13 -7 -30 -7 -37 0 -7 -5 -10 -10 -7 -6 4 -8 11 -5 16 4 5 1
9 -4 9 -6 0 -11 -5 -11 -11 0 -5 -4 -7 -10 -4 -5 3 -10 4 -10 1 0 -3 11 -11
24 -18 l23 -13 -17 -82 c-9 -46 -13 -83 -8 -83 5 0 11 14 15 31 3 18 9 26 13
19 4 -7 6 6 4 28 -1 22 4 51 11 65 10 19 10 27 2 31 -8 3 -9 7 -2 13 11 9 15
63 4 63 -4 0 -9 9 -12 19 -5 19 16 37 37 32 5 -1 5 4 -1 11 -6 7 -7 22 -3 33
4 11 4 28 -1 37 -5 10 -5 27 0 41 8 20 6 29 -10 43 -19 17 -19 15 -19 -73 0
-78 -2 -91 -17 -96 -10 -2 -26 -8 -35 -12 -16 -6 -18 -1 -18 41 0 33 -3 44 -9
35 -5 -8 -7 -20 -4 -28 3 -9 0 -11 -10 -7 -9 3 -14 16 -13 35 1 16 -1 35 -6
42 -4 7 -8 -11 -8 -40 0 -42 3 -51 15 -47 19 8 32 -23 16 -39 -8 -8 -11 -7
-11 6 0 9 -5 17 -11 17 -5 0 -9 -9 -7 -20 2 -10 0 -19 -5 -19 -16 -1 -82 -32
-88 -43 -4 -6 -21 -11 -38 -12 -17 0 -31 -4 -31 -8 0 -5 -6 -8 -13 -8 -8 0
-12 11 -11 29 3 40 14 57 26 40 5 -9 8 21 6 79 -2 50 -6 92 -10 92 -3 0 -4 10
-2 23 4 22 4 22 -6 -1 -5 -13 -8 -28 -4 -33 3 -5 0 -9 -5 -9 -6 0 -11 13 -11
29 0 17 -5 33 -11 37 -8 5 -9 -8 -5 -42z m43 -111 c3 -28 0 -43 -11 -52 -14
-11 -16 -11 -16 3 0 11 5 14 12 10 8 -5 8 -3 2 7 -12 19 -13 92 -1 80 5 -5 11
-27 14 -48z m-118 -236 c-2 -1 -11 -8 -20 -15 -13 -9 -16 -9 -16 3 0 8 9 15
20 15 11 0 18 -1 16 -3z"/>
<path d="M3730 2759 c0 -8 4 -20 9 -27 7 -11 9 -11 14 1 3 9 -1 21 -9 27 -11
10 -14 10 -14 -1z"/>
<path d="M661 2724 c0 -11 3 -14 6 -6 3 7 2 16 -1 19 -3 4 -6 -2 -5 -13z"/>
<path d="M876 2726 c5 -14 4 -17 -5 -11 -10 6 -10 2 0 -16 l14 -24 3 24 c2 13
-1 28 -8 35 -8 8 -9 6 -4 -8z"/>
<path d="M3360 2720 c0 -5 5 -10 11 -10 5 0 7 5 4 10 -3 6 -8 10 -11 10 -2 0
-4 -4 -4 -10z"/>
<path d="M3770 2715 c0 -8 4 -15 10 -15 5 0 7 7 4 15 -4 8 -8 15 -10 15 -2 0
-4 -7 -4 -15z"/>
<path d="M547 2697 c-11 -29 -9 -43 4 -30 6 6 9 19 7 29 -3 18 -4 18 -11 1z"/>
<path d="M3356 2671 c1 -14 5 -34 9 -43 4 -10 5 -40 3 -67 -3 -32 -1 -48 5
-44 6 4 8 -3 5 -15 -4 -12 -1 -22 4 -22 7 0 9 23 5 68 -4 37 -7 85 -7 108 0
26 -5 41 -12 41 -8 0 -12 -11 -12 -26z"/>
<path d="M646 2675 c-9 -26 -7 -32 5 -12 6 10 9 21 6 23 -2 3 -7 -2 -11 -11z"/>
<path d="M3178 2650 c-9 -17 -13 -30 -9 -30 5 0 9 -26 9 -57 0 -32 1 -60 2
-63 1 -3 3 -33 4 -67 2 -44 0 -60 -8 -56 -6 4 -5 -1 3 -10 7 -9 11 -24 7 -32
-3 -8 -1 -15 4 -15 9 0 17 145 11 190 -11 91 -12 138 -2 144 6 4 11 11 11 17
0 18 -15 8 -32 -21z"/>
<path d="M886 2605 c8 -102 10 -118 19 -139 5 -11 3 -26 -3 -37 -10 -15 -9
-17 5 -12 11 4 14 3 9 -5 -4 -7 -2 -12 4 -12 9 0 6 61 -6 99 -3 8 -7 44 -10
80 -4 36 -10 73 -15 81 -5 9 -6 -14 -3 -55z"/>
<path d="M3126 2642 c-11 -17 11 -332 24 -345 4 -5 11 -3 15 4 5 8 4 10 -3 5
-8 -5 -10 14 -8 66 2 42 0 78 -6 86 -8 9 -8 20 0 37 7 14 7 25 2 25 -5 0 -7 9
-5 20 2 11 -2 20 -8 20 -9 0 -8 3 1 8 10 7 10 15 2 36 -5 15 -8 32 -4 37 3 5
3 9 0 9 -3 0 -7 -4 -10 -8z"/>
<path d="M550 2629 c0 -5 5 -7 10 -4 6 3 10 8 10 11 0 2 -4 4 -10 4 -5 0 -10
-5 -10 -11z"/>
<path d="M561 2594 c0 -11 3 -14 6 -6 3 7 2 16 -1 19 -3 4 -6 -2 -5 -13z"/>
<path d="M568 2543 c5 -21 7 -23 10 -9 2 10 0 22 -6 28 -6 6 -7 0 -4 -19z"/>
<path d="M955 2549 c-4 -6 -5 -12 -2 -15 2 -3 7 2 10 11 7 17 1 20 -8 4z"/>
<path d="M570 2501 c0 -5 5 -13 10 -16 6 -3 10 -2 10 4 0 5 -4 13 -10 16 -5 3
-10 2 -10 -4z"/>
<path d="M3670 2478 c0 -5 -4 -7 -9 -4 -8 5 -26 -23 -19 -29 2 -2 18 5 36 15
28 16 30 18 12 23 -11 3 -20 1 -20 -5z"/>
<path d="M3756 2454 c-9 -23 -7 -44 3 -44 5 0 9 14 9 30 -1 34 -3 37 -12 14z"/>
<path d="M603 2370 c11 -39 22 -69 24 -67 5 6 -31 137 -38 137 -4 0 2 -32 14
-70z"/>
<path d="M3603 2423 c-23 -9 -13 -18 19 -18 36 0 50 20 16 22 -13 1 -29 -1
-35 -4z"/>
<path d="M850 2410 c0 -5 5 -10 11 -10 5 0 7 5 4 10 -3 6 -8 10 -11 10 -2 0
-4 -4 -4 -10z"/>
<path d="M3792 2385 c4 -48 -19 -60 -25 -13 l-4 33 -1 -37 c-2 -34 0 -38 23
-38 22 0 25 4 25 39 0 22 -5 43 -11 47 -7 4 -10 -6 -7 -31z"/>
<path d="M926 2381 c-4 -6 -2 -19 6 -28 11 -14 11 -16 -2 -8 -11 6 -10 3 3
-12 9 -11 17 -25 17 -31 0 -7 4 -12 9 -12 8 0 4 21 -19 84 -5 14 -9 16 -14 7z"/>
<path d="M3591 2374 c0 -11 3 -14 6 -6 3 7 2 16 -1 19 -3 4 -6 -2 -5 -13z"/>
<path d="M3510 2370 c0 -5 7 -7 15 -4 8 4 15 8 15 10 0 2 -7 4 -15 4 -8 0 -15
-4 -15 -10z"/>
<path d="M769 2343 c-13 -16 -12 -17 4 -4 9 7 17 15 17 17 0 8 -8 3 -21 -13z"/>
<path d="M3404 2329 c-3 -6 -2 -15 3 -20 5 -5 9 -1 10 11 2 22 -2 25 -13 9z"/>
<path d="M3638 2333 c6 -2 18 -2 25 0 6 3 1 5 -13 5 -14 0 -19 -2 -12 -5z"/>
<path d="M3586 2323 c5 -5 12 -12 15 -16 3 -5 9 -2 12 7 5 12 0 16 -15 16 -12
0 -17 -3 -12 -7z"/>
<path d="M575 2240 c-13 -6 -15 -9 -5 -9 8 0 22 4 30 9 18 12 2 12 -25 0z"/>
<path d="M3250 2230 c-13 -8 -13 -10 2 -10 9 0 20 5 23 10 8 13 -5 13 -25 0z"/>
<path d="M3360 2228 c0 -8 3 -30 6 -47 6 -26 11 -31 36 -31 21 0 27 4 21 13
-4 6 -6 22 -5 34 4 25 -13 39 -22 17 -3 -8 -2 -12 4 -9 15 9 12 -11 -3 -23
-10 -8 -13 -5 -15 16 -2 29 -22 56 -22 30z"/>
<path d="M3790 2218 c-4 -13 -21 -57 -36 -98 -35 -97 -74 -174 -132 -263 -26
-40 -51 -78 -55 -84 -19 -31 12 -9 39 26 16 22 32 37 36 35 3 -2 4 6 2 18 -2
13 -2 17 2 11 3 -7 10 -13 15 -13 6 0 7 5 4 11 -4 5 3 19 16 30 12 10 17 19
10 19 -8 0 -7 9 5 29 10 17 21 28 25 25 4 -2 5 5 2 16 -4 16 -2 19 11 14 9 -3
16 -1 16 5 0 6 -5 11 -10 11 -6 0 -3 14 6 32 9 17 22 50 30 72 8 23 11 29 9
14 -3 -16 -2 -28 3 -28 17 0 19 10 12 55 -5 32 -3 51 7 65 9 12 10 20 3 20 -6
0 -15 -10 -20 -22z"/>
<path d="M3203 2224 c-7 -3 -9 -12 -6 -20 3 -8 -3 -26 -13 -42 -15 -24 -15
-25 -1 -13 15 12 17 9 19 -30 4 -116 3 -143 -9 -147 -7 -2 -13 4 -13 13 0 9
-4 13 -10 10 -15 -10 -12 5 5 22 9 8 13 18 10 21 -3 4 -11 0 -16 -8 -7 -11 -9
-7 -5 15 2 17 8 39 12 49 5 14 4 17 -5 12 -10 -6 -12 3 -10 36 3 47 -5 68 -24
68 -9 0 -9 -2 -1 -8 6 -4 11 -16 11 -27 0 -11 0 -64 1 -117 l2 -98 36 0 36 0
-7 125 c-5 89 -4 125 4 125 6 0 11 5 11 10 0 11 -7 12 -27 4z"/>
<path d="M960 2205 c-25 -7 -52 -14 -60 -16 -22 -6 -39 -23 -32 -34 3 -5 -2
-4 -11 4 -15 12 -17 11 -17 -4 0 -14 -3 -15 -15 -5 -11 9 -15 9 -15 1 0 -7 -6
-11 -12 -10 -16 3 -68 -18 -68 -26 0 -4 10 -3 21 0 16 5 19 4 14 -5 -5 -8 -3
-11 6 -8 8 3 13 10 12 15 -1 5 5 10 13 10 8 0 14 -4 14 -9 0 -5 7 -2 16 6 8 9
23 16 32 16 10 0 28 8 41 17 14 9 21 11 17 5 -10 -17 0 -15 18 4 11 11 16 12
16 3 0 -9 4 -8 13 3 15 20 57 33 57 18 0 -6 -5 -8 -11 -4 -7 4 -10 2 -8 -5 3
-7 7 -13 9 -14 12 -2 100 37 100 45 0 7 -26 -3 -64 -25 -2 -1 -12 5 -22 14
-16 14 -25 14 -64 4z"/>
<path d="M3815 2210 c-3 -6 1 -7 9 -4 18 7 21 14 7 14 -6 0 -13 -4 -16 -10z"/>
<path d="M671 2185 c-1 -30 10 -65 21 -65 5 0 6 5 2 12 -4 6 -11 25 -15 42 -4
19 -7 23 -8 11z"/>
<path d="M1008 2127 c-4 -19 -1 -24 9 -20 8 3 13 2 12 -3 -4 -14 58 -134 65
-127 3 3 6 1 6 -5 0 -7 -3 -12 -7 -12 -5 0 -19 -10 -33 -21 l-25 -21 35 20 35
21 17 -28 c16 -29 9 -59 -11 -47 -6 4 -11 2 -11 -4 0 -7 -6 -10 -13 -7 -8 3
-14 -1 -14 -9 0 -8 10 -14 24 -14 13 0 23 5 23 11 0 6 6 9 13 6 6 -2 26 2 44
10 42 17 53 16 29 -2 -11 -8 -16 -15 -10 -15 15 0 30 14 43 38 10 18 9 22 -4
22 -11 0 -15 12 -15 49 0 35 -4 51 -16 55 -39 15 -44 8 -44 -61 l0 -68 -23 35
c-12 19 -20 37 -19 39 2 2 0 7 -5 10 -5 3 -30 44 -55 89 -39 72 -46 80 -50 59z
m198 -180 c5 -37 3 -43 -14 -44 -15 -1 -19 6 -20 40 -1 23 1 50 4 61 6 17 7
18 16 3 5 -10 11 -36 14 -60z"/>
<path d="M731 2033 c7 -12 15 -20 18 -17 3 2 -3 12 -13 22 -17 16 -18 16 -5
-5z"/>
<path d="M3373 2004 c9 -11 17 -26 17 -32 0 -6 4 -13 9 -16 18 -12 -2 33 -22
51 -22 18 -22 18 -4 -3z"/>
<path d="M987 1974 c7 -3 9 -13 6 -22 -4 -14 -3 -14 5 -2 12 16 7 30 -11 29
-9 0 -9 -2 0 -5z"/>
<path d="M765 1960 c3 -5 8 -10 11 -10 2 0 4 5 4 10 0 6 -5 10 -11 10 -5 0 -7
-4 -4 -10z"/>
<path d="M900 1940 c0 -5 10 -15 23 -21 22 -12 22 -12 3 10 -21 23 -26 26 -26
11z"/>
<path d="M791 1935 c1 -19 18 -51 18 -35 0 8 -4 22 -9 30 -5 8 -9 11 -9 5z"/>
<path d="M1000 1910 c-8 -5 -10 -10 -5 -10 6 0 17 5 25 10 8 5 11 10 5 10 -5
0 -17 -5 -25 -10z"/>
<path d="M820 1883 c0 -12 28 -38 34 -32 2 2 -5 13 -15 23 -11 11 -19 15 -19
9z"/>
<path d="M3320 1855 c19 -19 36 -35 39 -35 3 0 -10 16 -29 35 -19 19 -36 35
-39 35 -3 0 10 -16 29 -35z"/>
<path d="M965 1869 c-11 -16 -1 -19 13 -3 7 8 8 14 3 14 -5 0 -13 -5 -16 -11z"/>
<path d="M1016 1824 c-9 -24 -2 -26 12 -4 7 11 8 20 3 20 -5 0 -12 -7 -15 -16z"/>
<path d="M1216 1827 c3 -10 9 -15 12 -12 3 3 0 11 -7 18 -10 9 -11 8 -5 -6z"/>
<path d="M951 1818 c-1 -12 6 -18 19 -18 11 0 20 7 20 15 0 8 -5 15 -11 15 -5
0 -7 -4 -4 -10 3 -5 2 -10 -4 -10 -5 0 -12 6 -14 13 -3 7 -6 5 -6 -5z"/>
<path d="M3476 1667 c-36 -45 -224 -203 -237 -199 -6 1 -8 -1 -5 -6 3 -5 -11
-17 -32 -26 -53 -25 -75 -43 -67 -56 4 -7 10 -8 14 -3 3 4 32 21 64 37 31 16
57 30 57 33 0 2 -5 1 -12 -3 -7 -4 -8 -3 -4 4 4 7 13 12 20 12 7 0 24 12 39
28 38 40 54 52 71 52 8 0 18 5 22 12 5 7 2 8 -7 3 -8 -4 13 19 46 52 48 48 63
58 75 49 13 -9 13 -9 2 6 -8 9 -11 22 -7 28 15 25 -15 7 -39 -23z"/>
<path d="M1380 1656 l0 -29 -23 21 c-13 12 -26 22 -30 22 -14 0 18 -39 35 -43
22 -6 41 23 27 44 -6 10 -9 6 -9 -15z"/>
<path d="M2235 1659 c-4 -12 -2 -26 4 -32 8 -8 11 -2 11 21 0 37 -6 41 -15 11z"/>
<path d="M2400 1650 c0 -16 4 -30 9 -30 4 0 8 13 7 30 -1 39 -16 39 -16 0z"/>
<path d="M1670 1660 c-6 -4 -11 -11 -10 -16 0 -5 -8 -10 -20 -12 -11 -2 -18
-7 -15 -12 3 -4 -5 -6 -17 -2 -20 5 -21 3 -11 -9 11 -13 8 -15 -17 -11 -46 7
-103 -7 -97 -23 5 -12 -8 -19 -50 -30 -6 -2 -19 -8 -30 -15 -16 -10 -15 -11 7
-6 22 4 23 4 8 -8 -10 -7 -18 -16 -18 -19 0 -9 71 24 88 41 8 7 18 10 23 7 5
-4 9 -3 9 2 0 8 56 36 75 38 6 1 24 7 40 14 17 7 38 13 47 14 9 1 15 4 14 7
-5 10 31 37 47 34 9 -1 19 2 22 7 7 10 -78 10 -95 -1z"/>
<path d="M1846 1655 c-3 -8 0 -14 6 -12 7 1 13 -4 14 -10 1 -7 2 -16 3 -20 0
-4 6 -2 13 5 9 9 7 16 -9 31 -17 17 -22 18 -27 6z"/>
<path d="M1921 1662 c12 -6 13 -13 4 -45 -6 -21 -14 -35 -18 -30 -5 4 -5 -1
-1 -10 8 -23 11 -20 28 36 15 49 12 57 -13 56 -14 0 -14 -1 0 -7z"/>
<path d="M1982 1640 c-1 -17 2 -30 7 -30 5 0 8 11 7 25 -4 36 -11 39 -14 5z"/>
<path d="M2017 1663 c-10 -10 -8 -25 2 -18 5 3 12 1 16 -5 3 -5 1 -10 -5 -10
-6 0 -8 -5 -4 -11 4 -8 10 -6 17 7 7 13 7 19 -1 22 -7 2 -10 8 -6 13 6 10 -9
12 -19 2z"/>
<path d="M2463 1650 c1 -19 -2 -24 -17 -22 -11 2 -15 -1 -11 -7 7 -13 16 -14
33 -3 9 6 10 15 2 33 l-10 24 3 -25z"/>
<path d="M1430 1645 c-10 -12 -10 -15 4 -15 9 0 16 7 16 15 0 8 -2 15 -4 15
-2 0 -9 -7 -16 -15z"/>
<path d="M1217 1635 c3 -8 9 -12 14 -9 12 7 11 11 -5 17 -10 4 -13 1 -9 -8z"/>
<path d="M1817 1615 c3 -8 9 -12 14 -9 12 7 11 11 -5 17 -10 4 -13 1 -9 -8z"/>
<path d="M1047 1609 c7 -7 15 -10 18 -7 3 3 -2 9 -12 12 -14 6 -15 5 -6 -5z"/>
<path d="M2555 1590 c3 -5 8 -10 11 -10 2 0 4 5 4 10 0 6 -5 10 -11 10 -5 0
-7 -4 -4 -10z"/>
<path d="M1080 1575 c7 -8 17 -15 22 -15 5 0 3 7 -6 15 -8 8 -18 15 -22 15 -3
0 -1 -7 6 -15z"/>
<path d="M1788 1583 c7 -3 16 -2 19 1 4 3 -2 6 -13 5 -11 0 -14 -3 -6 -6z"/>
<path d="M1980 1579 c0 -5 5 -7 10 -4 6 3 10 8 10 11 0 2 -4 4 -10 4 -5 0 -10
-5 -10 -11z"/>
<path d="M2241 1554 c0 -11 3 -14 6 -6 3 7 2 16 -1 19 -3 4 -6 -2 -5 -13z"/>
<path d="M1121 1555 c0 -5 6 -19 14 -29 8 -11 15 -15 15 -10 0 6 -7 19 -15 30
-8 10 -14 15 -14 9z"/>
<path d="M2018 1553 c7 -3 16 -2 19 1 4 3 -2 6 -13 5 -11 0 -14 -3 -6 -6z"/>
<path d="M2330 1530 c-20 -3 -41 -10 -48 -14 -18 -11 -15 -26 6 -26 14 0 14 2
3 9 -18 12 47 26 84 19 29 -6 32 -2 8 10 -10 5 -34 6 -53 2z"/>
<path d="M1160 1521 c0 -6 4 -13 10 -16 6 -3 7 1 4 9 -7 18 -14 21 -14 7z"/>
<path d="M1756 1513 c-6 -14 -5 -15 5 -6 7 7 10 15 7 18 -3 3 -9 -2 -12 -12z"/>
<path d="M1336 1512 c-3 -6 1 -13 10 -16 23 -9 28 -2 10 13 -8 7 -17 8 -20 3z"/>
<path d="M1825 1501 c-3 -5 -2 -12 3 -15 5 -3 9 1 9 9 0 17 -3 19 -12 6z"/>
<path d="M1788 1473 c7 -3 16 -2 19 1 4 3 -2 6 -13 5 -11 0 -14 -3 -6 -6z"/>
<path d="M2345 1460 c3 -5 8 -10 11 -10 2 0 4 5 4 10 0 6 -5 10 -11 10 -5 0
-7 -4 -4 -10z"/>
<path d="M2450 1450 c6 -11 13 -20 16 -20 2 0 0 9 -6 20 -6 11 -13 20 -16 20
-2 0 0 -9 6 -20z"/>
<path d="M2406 1444 c-5 -14 -4 -15 9 -4 17 14 19 20 6 20 -5 0 -12 -7 -15
-16z"/>
<path d="M2298 1423 c5 -21 7 -23 10 -9 2 10 0 22 -6 28 -6 6 -7 0 -4 -19z"/>
<path d="M2880 1416 c0 -2 8 -10 18 -17 15 -13 16 -12 3 4 -13 16 -21 21 -21
13z"/>
<path d="M1330 1399 c0 -5 5 -7 10 -4 6 3 10 8 10 11 0 2 -4 4 -10 4 -5 0 -10
-5 -10 -11z"/>
<path d="M1868 1403 c7 -3 16 -2 19 1 4 3 -2 6 -13 5 -11 0 -14 -3 -6 -6z"/>
<path d="M2315 1380 c3 -5 8 -10 11 -10 2 0 4 5 4 10 0 6 -5 10 -11 10 -5 0
-7 -4 -4 -10z"/>
<path d="M1420 1349 c0 -5 5 -7 10 -4 6 3 10 8 10 11 0 2 -4 4 -10 4 -5 0 -10
-5 -10 -11z"/>
<path d="M1470 1326 c0 -2 8 -10 18 -17 15 -13 16 -12 3 4 -13 16 -21 21 -21
13z"/>
<path d="M1526 1295 c10 -8 23 -15 28 -15 6 0 1 7 -10 15 -10 8 -23 15 -28 15
-6 0 -1 -7 10 -15z"/>
<path d="M2045 1300 c-3 -5 -2 -10 4 -10 5 0 13 5 16 10 3 6 2 10 -4 10 -5 0
-13 -4 -16 -10z"/>
<path d="M1566 1275 c-3 -9 3 -11 17 -8 18 4 20 3 7 -7 -13 -10 -13 -11 3 -6
9 3 17 1 17 -5 0 -5 6 -9 13 -8 29 4 58 -2 53 -10 -9 -13 54 -25 66 -13 7 7 5
10 -8 8 -11 -2 -23 0 -29 4 -5 4 -38 19 -72 32 -46 19 -63 22 -67 13z"/>
<path d="M2051 1264 c0 -11 3 -14 6 -6 3 7 2 16 -1 19 -3 4 -6 -2 -5 -13z"/>
<path d="M2660 1276 c0 -2 7 -7 16 -10 8 -3 12 -2 9 4 -6 10 -25 14 -25 6z"/>
<path d="M2489 1233 c-13 -16 -12 -17 4 -4 16 13 21 21 13 21 -2 0 -10 -8 -17
-17z"/>
</g>
</svg>
